<svg width="545" height="50" viewBox="0 0 218 20" fill="none" xmlns="http://www.w3.org/2000/svg">
        <path d="M56.5755 0.382979V7.02128C55.7194 5.53192 54.255 4.59574 52.385 4.59574C49.2309 4.59574 46.8428 7.04255 46.8428 10.2766C46.8428 13.5106 49.2309 15.9574 52.385 15.9574C54.255 15.9574 55.7194 15.0213 56.5755 13.5319V15.7021H59.1438V0.382979H56.5755ZM53.0384 12.8511C51.0107 12.8511 49.5238 11.7447 49.5238 10.2766C49.5238 8.80851 51.0107 7.70213 53.0384 7.70213C55.066 7.70213 56.5755 8.80851 56.5755 10.2766C56.5755 11.7447 55.066 12.8511 53.0384 12.8511ZM63.0366 3.42553C64.2307 3.42553 65.1319 2.68085 65.1319 1.70213C65.1319 0.744681 64.2307 0 63.0366 0C61.8651 0 60.9639 0.744681 60.9639 1.70213C60.9639 2.68085 61.8651 3.42553 63.0366 3.42553ZM61.7525 15.7021H64.3208V4.85106H61.7525V15.7021ZM76.0463 4.85106V6.93617C75.1902 5.48936 73.7257 4.59574 71.8783 4.59574C68.7017 4.59574 66.3361 6.95745 66.3361 10.0851C66.3361 13.2128 68.7017 15.5957 71.8783 15.5957C73.7257 15.5957 75.1902 14.6809 76.0463 13.2553V14.5106C76.0463 16.0638 74.7396 17.0638 72.7119 17.0638C71.3151 17.0638 70.121 16.617 69.6029 15.9149H66.9219C67.5977 18.4255 69.738 20 72.7119 20C76.2716 20 78.6372 17.8298 78.6372 14.5319V4.85106H76.0463ZM72.5317 12.6596C70.504 12.6596 68.9946 11.5532 68.9946 10.0851C68.9946 8.61702 70.504 7.51064 72.5317 7.51064C74.5593 7.51064 76.0463 8.61702 76.0463 10.0851C76.0463 11.5532 74.5593 12.6596 72.5317 12.6596ZM82.486 3.42553C83.6801 3.42553 84.5812 2.68085 84.5812 1.70213C84.5812 0.744681 83.6801 0 82.486 0C81.3145 0 80.4133 0.744681 80.4133 1.70213C80.4133 2.68085 81.3145 3.42553 82.486 3.42553ZM81.2018 15.7021H83.7702V4.85106H81.2018V15.7021ZM93.1975 4.59574C91.3275 4.59574 89.8631 5.46809 88.9845 7.12766V4.85106H86.4161V15.7021H88.9845V9.80851C88.9845 8.53192 90.2461 7.70213 92.0935 7.70213C93.8733 7.70213 95.0224 8.51064 95.0224 9.76596V15.7021H97.5907V8.7234C97.5907 6.23404 95.8334 4.59574 93.1975 4.59574ZM111.706 10.3404C111.706 7.02128 109.048 4.59574 105.511 4.59574C101.974 4.59574 99.3151 7.04255 99.3151 10.2766C99.3151 13.5106 101.974 15.9574 105.533 15.9574C108.349 15.9574 110.647 14.4681 111.504 12.2766H108.665C108.147 12.7447 106.953 13.1064 105.601 13.1064C103.776 13.1064 102.447 12.3617 101.974 11.1915H111.639C111.684 10.9362 111.706 10.617 111.706 10.3404ZM105.511 7.44681C107.223 7.44681 108.62 8.17021 109.07 9.34042H101.996C102.469 8.19149 103.821 7.44681 105.511 7.44681ZM123.791 4.85106H120.524L117.888 8.31915H117.505L114.847 4.85106H111.828L115.703 10.1915L111.67 15.7021H114.915L117.596 12.2128H118.001L120.727 15.7021H123.724L119.803 10.3191L123.791 4.85106Z" fill="#150A84"/>
        <path d="M25.9694 1.13956C26.1761 1.10512 26.2854 1.07068 26.4071 1.07068C28.4493 1.07068 30.5038 1.04773 32.546 1.09365C33.9683 1.12809 35.1474 1.66766 36.2172 2.63201C37.5666 3.83745 38.065 5.27251 38.0408 6.94865C38.0286 8.32629 38.0408 9.70393 38.0408 11.0816C38.0164 14.0436 35.4514 16.5119 32.3272 16.5232C27.9265 16.5462 23.5381 16.5232 19.1375 16.5347C16.1592 16.5462 13.424 14.0321 13.4605 11.1275C13.4726 9.97947 13.4848 8.83142 13.4483 7.68339C13.4362 7.18974 13.6185 7.06346 14.1169 7.07493C15.0287 7.10938 15.9404 7.09788 16.8521 7.07493C17.2411 7.06346 17.387 7.20121 17.387 7.56858C17.3627 8.63627 17.3748 9.71541 17.387 10.7831C17.3991 12.0459 18.2136 12.8151 19.5508 12.8151C23.684 12.8151 27.8172 12.8151 31.9503 12.8151C33.2876 12.8151 34.1264 12.0459 34.1386 10.7946C34.1506 9.47432 34.1506 8.15409 34.1386 6.83384C34.1264 5.6284 33.2633 4.82477 31.9868 4.8133C30.7104 4.80181 29.434 4.80181 28.1576 4.8133C27.7807 4.8133 27.574 4.73294 27.5011 4.33112C27.2701 3.18308 26.796 2.12689 25.9694 1.13956Z" fill="#150A84"/>
        <path d="M12.1343 15.8059C9.77595 15.8059 7.51486 15.8863 5.24162 15.7831C2.38487 15.6568 0.026523 13.2229 0.0143665 10.525C0.00221023 8.95219 0.0629921 7.37937 0.00221022 5.81804C-0.0828846 3.13162 2.29978 0.525574 5.31455 0.387817C7.08939 0.307454 8.87638 0.307454 10.6512 0.295978C13.2041 0.284485 15.7569 0.27301 18.3097 0.295978C20.1454 0.307454 21.7865 0.812599 23.0386 2.14432C23.9625 3.12015 24.5094 4.24523 24.5216 5.56547C24.5338 6.80536 24.5216 8.05672 24.5338 9.29661C24.5338 9.69842 24.3757 9.83618 23.9625 9.8247C23.0264 9.80173 22.1025 9.80173 21.1664 9.8247C20.7653 9.83618 20.6438 9.70989 20.656 9.31956C20.6802 8.30928 20.6802 7.28754 20.6682 6.27725C20.656 4.85369 19.9995 4.16487 18.5042 4.05006C17.8843 4.00414 17.2521 4.01562 16.62 4.01562C13.3013 4.01562 9.97046 4.01562 6.65176 4.01562C6.40863 4.01562 6.16549 4.01561 5.92238 4.03858C4.65811 4.15339 3.91658 4.85369 3.8801 6.04765C3.84363 7.34493 3.84363 8.6537 3.8801 9.95098C3.91658 11.3057 4.75535 12.0634 6.18982 12.0749C7.40546 12.0863 8.62109 12.0863 9.83674 12.0749C10.2865 12.0634 10.481 12.2126 10.5418 12.6488C10.712 13.7166 11.2712 14.7728 12.1343 15.8059Z" fill="#150A84"/>
        <path d="M139.926 15.6663L139.133 13.561H130.742L129.937 15.6663H126.774L132.383 1.0122H137.22L142.828 15.6663H139.926ZM132.231 9.74452H137.633L135.883 5.17094H133.991L132.231 9.74452Z" fill="url(#apprise-grad)"/>
        <path d="M151.208 1.0122C152.824 1.0122 154.172 1.51001 155.252 2.50561C156.339 3.49431 156.882 4.73191 156.882 6.2184C156.882 7.7049 156.339 8.9425 155.252 9.93119C154.172 10.9199 152.824 11.4142 151.208 11.4142H146.785V15.6663H144.089V1.0122H151.208ZM151.121 7.59774C153.092 7.59774 154.078 7.13796 154.078 6.2184C154.078 5.29885 153.092 4.83907 151.121 4.83907H146.785V7.59774H151.121Z" fill="url(#apprise-grad)"/>
        <path d="M165.491 1.0122C167.106 1.0122 168.454 1.51001 169.534 2.50561C170.621 3.49431 171.164 4.73191 171.164 6.2184C171.164 7.7049 170.621 8.9425 169.534 9.93119C168.454 10.9199 167.106 11.4142 165.491 11.4142H161.067V15.6663H158.371V1.0122H165.491ZM165.404 7.59774C167.375 7.59774 168.36 7.13796 168.36 6.2184C168.36 5.29885 167.375 4.83907 165.404 4.83907H161.067V7.59774H165.404Z" fill="url(#apprise-grad)"/>
        <path d="M182.294 15.6663L179.349 11.4142H175.349V15.6663H172.653V1.0122H179.773C181.389 1.0122 182.736 1.51001 183.816 2.50561C184.903 3.49431 185.447 4.73191 185.447 6.2184C185.447 7.2555 185.171 8.18542 184.62 9.00818C184.077 9.82403 183.338 10.4428 182.403 10.8646L185.697 15.6663H182.294ZM175.349 4.83907V7.59774H179.686C181.657 7.59774 182.642 7.13796 182.642 6.2184C182.642 5.29885 181.657 4.83907 179.686 4.83907H175.349Z" fill="url(#apprise-grad)"/>
        <path d="M187.24 15.6663V1.0122H189.936V15.6663H187.24Z" fill="url(#apprise-grad)"/>
        <path d="M198.305 15.9256C196.406 15.9256 194.834 15.4554 193.588 14.5151C192.341 13.5679 191.718 12.3995 191.718 11.0098H194.522C194.522 11.3762 194.899 11.6839 195.653 11.9328C196.414 12.1817 197.366 12.3061 198.511 12.3061C199.504 12.3061 200.337 12.2163 201.011 12.0365C201.685 11.8498 202.022 11.6078 202.022 11.3105C202.022 10.7574 200.635 10.3391 197.859 10.0556C196.091 9.86897 194.671 9.3919 193.598 8.62446C192.526 7.85009 191.99 6.80609 191.99 5.49244C191.99 4.07508 192.58 2.93082 193.762 2.05967C194.95 1.18851 196.435 0.75293 198.218 0.75293C200.044 0.75293 201.558 1.20579 202.761 2.11152C203.964 3.01725 204.566 4.13731 204.566 5.4717H201.761C201.761 5.14674 201.417 4.88056 200.729 4.67314C200.048 4.46572 199.167 4.36201 198.087 4.36201C197.124 4.36201 196.334 4.44843 195.718 4.62128C195.102 4.79413 194.794 5.01538 194.794 5.28502C194.794 5.81048 196.098 6.20458 198.707 6.46731C202.787 6.88906 204.826 8.3963 204.826 10.989C204.826 12.4479 204.203 13.6371 202.957 14.5566C201.711 15.4693 200.16 15.9256 198.305 15.9256Z" fill="url(#apprise-grad)"/>
        <path d="M209.305 11.8394H218V15.6663H206.609V1.0122H217.891V4.83907H209.305V6.60213H217.185V9.99342H209.305V11.8394Z" fill="url(#apprise-grad)"/>
        <defs>
          <radialGradient id="apprise-grad" cx="0" cy="0" r="1" gradientUnits="userSpaceOnUse"
            gradientTransform="translate(126.867 15.8703) scale(91.2258 489.189)">
            <stop stop-color="#275E86"/>
            <stop offset="0.703199" stop-color="#8FD0ED"/>
            <stop offset="0.851083" stop-color="#EEF08E"/>
            <stop offset="1" stop-color="#E8CA41"/>
          </radialGradient>
        </defs>
      </svg>